#define close_pressed_width 20
#define close_pressed_height 20
static unsigned char close_pressed_bits[] = {
   0x00, 0x00, 0x00, 0x00, 0x00, 0x08, 0x00, 0x00, 0x08, 0x00, 0x00, 0x08,
   0x00, 0x00, 0x08, 0x00, 0x00, 0x08, 0xc0, 0x60, 0x08, 0xc0, 0x71, 0x08,
   0x80, 0x3b, 0x08, 0x00, 0x1f, 0x08, 0x00, 0x0e, 0x08, 0x00, 0x0e, 0x08,
   0x00, 0x1f, 0x08, 0x80, 0x3b, 0x08, 0xc0, 0x71, 0x08, 0xc0, 0x60, 0x08,
   0x00, 0x00, 0x08, 0x00, 0x00, 0x08, 0x00, 0x00, 0x08, 0xfe, 0xff, 0x0f };
