#define close_disabled_width 20
#define close_disabled_height 20
static unsigned char close_disabled_bits[] = {
   0xff, 0xff, 0x07, 0x01, 0x00, 0x00, 0x01, 0x00, 0x00, 0x01, 0x00, 0x00,
   0x01, 0x00, 0x00, 0x01, 0x00, 0x00, 0xc1, 0x60, 0x00, 0xc1, 0x71, 0x00,
   0x81, 0x3b, 0x00, 0x01, 0x1f, 0x00, 0x01, 0x0e, 0x00, 0x01, 0x0e, 0x00,
   0x01, 0x1f, 0x00, 0x81, 0x3b, 0x00, 0xc1, 0x71, 0x00, 0xc1, 0x60, 0x00,
   0x01, 0x00, 0x00, 0x01, 0x00, 0x00, 0x01, 0x00, 0x00, 0x00, 0x00, 0x00 };
