#define iconify_hover_width 20
#define iconify_hover_height 20
static unsigned char iconify_hover_bits[] = {
   0xff, 0xff, 0x07, 0x01, 0x00, 0x00, 0x01, 0x00, 0x00, 0x01, 0x00, 0x00,
   0x01, 0x00, 0x00, 0x01, 0x00, 0x00, 0x01, 0x00, 0x00, 0x01, 0x00, 0x00,
   0x01, 0x00, 0x00, 0x01, 0x00, 0x00, 0x01, 0x00, 0x00, 0x01, 0x00, 0x00,
   0x01, 0x00, 0x00, 0x01, 0x00, 0x00, 0xe1, 0x1f, 0x00, 0xe1, 0x1f, 0x00,
   0x01, 0x00, 0x00, 0x01, 0x00, 0x00, 0x01, 0x00, 0x00, 0x00, 0x00, 0x00 };
