#define max_pressed_width 20
#define max_pressed_height 20
static unsigned char max_pressed_bits[] = {
   0x00, 0x00, 0x00, 0x00, 0x00, 0x08, 0x00, 0x00, 0x08, 0x00, 0x00, 0x08,
   0x00, 0xff, 0x09, 0x00, 0xff, 0x09, 0x00, 0x01, 0x09, 0x00, 0x01, 0x09,
   0xf0, 0x1f, 0x09, 0xf0, 0x1f, 0x09, 0x10, 0x10, 0x09, 0x10, 0xf0, 0x09,
   0x10, 0x10, 0x08, 0x10, 0x10, 0x08, 0x10, 0x10, 0x08, 0xf0, 0x1f, 0x08,
   0x00, 0x00, 0x08, 0x00, 0x00, 0x08, 0x00, 0x00, 0x08, 0xfe, 0xff, 0x0f };
