#define max_toggled_pressed_width 20
#define max_toggled_pressed_height 20
static unsigned char max_toggled_pressed_bits[] = {
   0xff, 0xff, 0x07, 0x01, 0x00, 0x00, 0x01, 0x00, 0x00, 0x01, 0x00, 0x00,
   0x01, 0xff, 0x01, 0x01, 0xff, 0x01, 0x01, 0x01, 0x01, 0x01, 0x01, 0x01,
   0xf1, 0x1f, 0x01, 0xf1, 0x1f, 0x01, 0x11, 0x10, 0x01, 0x11, 0xf0, 0x01,
   0x11, 0x10, 0x00, 0x11, 0x10, 0x00, 0x11, 0x10, 0x00, 0xf1, 0x1f, 0x00,
   0x01, 0x00, 0x00, 0x01, 0x00, 0x00, 0x01, 0x00, 0x00, 0x00, 0x00, 0x00 };
